HIERARCHY
ROOT reference
{
  OFFSET 0 0 0
  CHANNELS 6 Xposition Yposition Zposition Zrotation Xrotation Yrotation
  JOINT Hips
  {
    OFFSET 387.421 88.6843 214.036
    CHANNELS 3 Zrotation Xrotation Yrotation
    JOINT RightUpLeg
    {
      OFFSET -9.26407 -1.54033 -0.0169218
      CHANNELS 3 Zrotation Xrotation Yrotation
      JOINT RightLeg
      {
        OFFSET 0.0262756 -41.889 0.0389421
        CHANNELS 3 Zrotation Xrotation Yrotation
        JOINT RightFoot
        {
          OFFSET -0.025595 -42.7244 0.117519
          CHANNELS 3 Zrotation Xrotation Yrotation
          End Site
          {
            OFFSET 0 -7.69 17.5
          }
        }
      }
    }
    JOINT LeftUpLeg
    {
      OFFSET 9.28488 -1.63184 0.00456132
      CHANNELS 3 Zrotation Xrotation Yrotation
      JOINT LeftLeg
      {
        OFFSET -0.00133996 -41.8929 0.0117795
        CHANNELS 3 Zrotation Xrotation Yrotation
        JOINT LeftFoot
        {
          OFFSET 0.253805 -40.8902 0.809143
          CHANNELS 3 Zrotation Xrotation Yrotation
          End Site
          {
            OFFSET 0 -7.69 17.5
          }
        }
      }
    }
    JOINT Spine
    {
      OFFSET 0.04218 14.2944 0.0529257
      CHANNELS 3 Zrotation Xrotation Yrotation
      JOINT Spine1
      {
        OFFSET 0.022284 9.72228 0.00997239
        CHANNELS 3 Zrotation Xrotation Yrotation
        JOINT Spine2
        {
          OFFSET 0.0397412 10.1199 -0.0103674
          CHANNELS 3 Zrotation Xrotation Yrotation
          JOINT Spine3
          {
            OFFSET 0.0389473 9.71765 -0.00772733
            CHANNELS 3 Zrotation Xrotation Yrotation
            JOINT Neck
            {
              OFFSET 0.0437972 10.3765 0.0320322
              CHANNELS 3 Zrotation Xrotation Yrotation
              JOINT Head
              {
                OFFSET 0.0431994 9.46781 0.0291763
                CHANNELS 3 Zrotation Xrotation Yrotation
                End Site
                {
                  OFFSET 0 15.95 0
                }
              }
            }
            JOINT RightShoulder
            {
              OFFSET -3.17206 6.93005 0.0018626
              CHANNELS 3 Zrotation Xrotation Yrotation
              JOINT RightArm
              {
                OFFSET -12.781 0.0116363 0.0199633
                CHANNELS 3 Zrotation Xrotation Yrotation
                JOINT RightForeArm
                {
                  OFFSET -26.5135 -0.0113607 0.0486864
                  CHANNELS 3 Zrotation Xrotation Yrotation
                  JOINT RightHand
                  {
                    OFFSET -25.9857 -0.0984063 0.163753
                    CHANNELS 3 Zrotation Xrotation Yrotation
                    JOINT RightHandThumb1
                    {
                      OFFSET -2.48905 0.190105 3.12053
                      CHANNELS 3 Zrotation Xrotation Yrotation
                      JOINT RightHandThumb2
                      {
                        OFFSET -3.68274 0 0
                        CHANNELS 3 Zrotation Xrotation Yrotation
                        JOINT RightHandThumb3
                        {
                          OFFSET -2.55832 0 0
                          CHANNELS 3 Zrotation Xrotation Yrotation
                          End Site
                          {
                            OFFSET -2.194 0 0
                          }
                        }
                      }
                    }
                    JOINT RightInHandIndex
                    {
                      OFFSET -3.22368 0.508421 1.97842
                      CHANNELS 3 Zrotation Xrotation Yrotation
                      JOINT RightHandIndex1
                      {
                        OFFSET -5.21684 -0.091368 0.999158
                        CHANNELS 3 Zrotation Xrotation Yrotation
                        JOINT RightHandIndex2
                        {
                          OFFSET -3.61937 0 0
                          CHANNELS 3 Zrotation Xrotation Yrotation
                          JOINT RightHandIndex3
                          {
                            OFFSET -2.0521 0 0
                            CHANNELS 3 Zrotation Xrotation Yrotation
                            End Site
                            {
                              OFFSET -1.805 0 0
                            }
                          }
                        }
                      }
                    }
                    JOINT RightInHandMiddle
                    {
                      OFFSET -3.38211 0.517263 0.756737
                      CHANNELS 3 Zrotation Xrotation Yrotation
                      JOINT RightHandMiddle1
                      {
                        OFFSET -5.17411 -0.084 0.313895
                        CHANNELS 3 Zrotation Xrotation Yrotation
                        JOINT RightHandMiddle2
                        {
                          OFFSET -3.94947 0 0
                          CHANNELS 3 Zrotation Xrotation Yrotation
                          JOINT RightHandMiddle3
                          {
                            OFFSET -2.47579 0 0
                            CHANNELS 3 Zrotation Xrotation Yrotation
                            End Site
                            {
                              OFFSET -1.975 0 0
                            }
                          }
                        }
                      }
                    }
                    JOINT RightInHandRing
                    {
                      OFFSET -3.36516 0.537895 -0.128947
                      CHANNELS 3 Zrotation Xrotation Yrotation
                      JOINT RightHandRing1
                      {
                        OFFSET -4.63474 -0.022105 -0.478947
                        CHANNELS 3 Zrotation Xrotation Yrotation
                        JOINT RightHandRing2
                        {
                          OFFSET -3.44238 0 0
                          CHANNELS 3 Zrotation Xrotation Yrotation
                          JOINT RightHandRing3
                          {
                            OFFSET -2.3881 0 0
                            CHANNELS 3 Zrotation Xrotation Yrotation
                            End Site
                            {
                              OFFSET -1.857 0 0
                            }
                          }
                        }
                      }
                    }
                    JOINT RightInHandPinky
                    {
                      OFFSET -3.16105 0.469368 -1.20179
                      CHANNELS 3 Zrotation Xrotation Yrotation
                      JOINT RightHandPinky1
                      {
                        OFFSET -4.14105 -0.022105 -1.09053
                        CHANNELS 3 Zrotation Xrotation Yrotation
                        JOINT RightHandPinky2
                        {
                          OFFSET -2.75653 0 0
                          CHANNELS 3 Zrotation Xrotation Yrotation
                          JOINT RightHandPinky3
                          {
                            OFFSET -1.74189 0 0
                            CHANNELS 3 Zrotation Xrotation Yrotation
                            End Site
                            {
                              OFFSET -1.645 0 0
                            }
                          }
                        }
                      }
                    }
                  }
                }
              }
            }
            JOINT LeftShoulder
            {
              OFFSET 3.23848 6.90919 -0.0119143
              CHANNELS 3 Zrotation Xrotation Yrotation
              JOINT LeftArm
              {
                OFFSET 12.8241 -0.0554782 -0.0520121
                CHANNELS 3 Zrotation Xrotation Yrotation
                JOINT LeftForeArm
                {
                  OFFSET 26.4865 -0.0658343 -0.0244543
                  CHANNELS 3 Zrotation Xrotation Yrotation
                  JOINT LeftHand
                  {
                    OFFSET 25.985 -0.0475988 -0.0124738
                    CHANNELS 3 Zrotation Xrotation Yrotation
                    JOINT LeftHandThumb1
                    {
                      OFFSET 2.48905 0.190105 3.12053
                      CHANNELS 3 Zrotation Xrotation Yrotation
                      JOINT LeftHandThumb2
                      {
                        OFFSET 3.68274 0 0
                        CHANNELS 3 Zrotation Xrotation Yrotation
                        JOINT LeftHandThumb3
                        {
                          OFFSET 2.55832 0 0
                          CHANNELS 3 Zrotation Xrotation Yrotation
                          End Site
                          {
                            OFFSET 2.194 0 0
                          }
                        }
                      }
                    }
                    JOINT LeftInHandIndex
                    {
                      OFFSET 3.22368 0.508421 1.97842
                      CHANNELS 3 Zrotation Xrotation Yrotation
                      JOINT LeftHandIndex1
                      {
                        OFFSET 5.21684 -0.091368 0.999158
                        CHANNELS 3 Zrotation Xrotation Yrotation
                        JOINT LeftHandIndex2
                        {
                          OFFSET 3.61937 0 0
                          CHANNELS 3 Zrotation Xrotation Yrotation
                          JOINT LeftHandIndex3
                          {
                            OFFSET 2.0521 0 0
                            CHANNELS 3 Zrotation Xrotation Yrotation
                            End Site
                            {
                              OFFSET 1.805 0 0
                            }
                          }
                        }
                      }
                    }
                    JOINT LeftInHandMiddle
                    {
                      OFFSET 3.38211 0.517263 0.756737
                      CHANNELS 3 Zrotation Xrotation Yrotation
                      JOINT LeftHandMiddle1
                      {
                        OFFSET 5.17411 -0.084 0.313895
                        CHANNELS 3 Zrotation Xrotation Yrotation
                        JOINT LeftHandMiddle2
                        {
                          OFFSET 3.94947 0 0
                          CHANNELS 3 Zrotation Xrotation Yrotation
                          JOINT LeftHandMiddle3
                          {
                            OFFSET 2.47579 0 0
                            CHANNELS 3 Zrotation Xrotation Yrotation
                            End Site
                            {
                              OFFSET 1.975 0 0
                            }
                          }
                        }
                      }
                    }
                    JOINT LeftInHandRing
                    {
                      OFFSET 3.36516 0.537895 -0.128947
                      CHANNELS 3 Zrotation Xrotation Yrotation
                      JOINT LeftHandRing1
                      {
                        OFFSET 4.63474 -0.022105 -0.478947
                        CHANNELS 3 Zrotation Xrotation Yrotation
                        JOINT LeftHandRing2
                        {
                          OFFSET 3.44238 0 0
                          CHANNELS 3 Zrotation Xrotation Yrotation
                          JOINT LeftHandRing3
                          {
                            OFFSET 2.3881 0 0
                            CHANNELS 3 Zrotation Xrotation Yrotation
                            End Site
                            {
                              OFFSET 1.857 0 0
                            }
                          }
                        }
                      }
                    }
                    JOINT LeftInHandPinky
                    {
                      OFFSET 3.16105 0.469368 -1.20179
                      CHANNELS 3 Zrotation Xrotation Yrotation
                      JOINT LeftHandPinky1
                      {
                        OFFSET 4.14105 -0.022105 -1.09053
                        CHANNELS 3 Zrotation Xrotation Yrotation
                        JOINT LeftHandPinky2
                        {
                          OFFSET 2.75653 0 0
                          CHANNELS 3 Zrotation Xrotation Yrotation
                          JOINT LeftHandPinky3
                          {
                            OFFSET 1.74189 0 0
                            CHANNELS 3 Zrotation Xrotation Yrotation
                            End Site
                            {
                              OFFSET 1.645 0 0
                            }
                          }
                        }
                      }
                    }
                  }
                }
              }
            }
          }
        }
      }
    }
  }
}
MOTION
Frames: 2
Frame Time: 0.00833333
7.500000000000000000e+02 0.000000000000000000e+00 0.000000000000000000e+00 0.000000000000000000e+00 0.000000000000000000e+00 0.000000000000000000e+00 -7.054751180035684355e-01 -9.880989072160495823e+00 -1.149500280084380677e+01 -8.393511789481477026e-01 1.425803816740975449e+01 9.174599212078332400e+00 -1.058857538593176217e+00 -8.749316858318977097e+00 2.916785907888190810e+00 2.503714463860160944e+00 -2.237016216240244493e+00 2.094808746402547328e+00 9.084481644490682850e-01 1.618520315995843362e+01 7.599061715756438851e+00 -7.948853982273601737e+00 -3.057941879343331060e+00 4.835618976917301026e+00 8.941236714494603666e-01 -5.240586898863259790e+00 5.875251788206328207e+00 -4.475698531114274736e+00 8.427345371739981550e-01 7.946259191751440021e+00 -8.021153245606149618e-01 -2.379521146741915560e-02 2.063182832761667029e+00 -1.498624531361301138e+00 -2.030088029345644141e-01 3.622700348694032790e+00 2.235221553114774273e-01 2.549315114382167957e-01 -5.368680387227607875e-01 1.183465449069291520e+00 -1.547193886319571110e-01 2.801883971347488567e-01 3.910872219369823100e+00 7.731545373380597219e+00 -8.088791639527713073e+00 -1.374594665065208332e+00 8.516140107431000583e-01 8.483980326018727425e+00 -3.021646006047833311e+01 -2.829424413950258010e+00 1.876239280518688490e+00 -9.701268827700300079e+00 2.362504077724877050e+01 -1.815911101467870736e+01 -1.892036736653222251e+00 4.208446263936450604e-01 -6.192469011640581833e+00 0.000000000000000000e+00 0.000000000000000000e+00 0.000000000000000000e+00 -4.640870261139627874e-15 -1.224501586497270806e-15 0.000000000000000000e+00 -2.952133395781777220e-15 -2.691237338456243395e-15 0.000000000000000000e+00 4.433489364820274511e-16 1.812425208224724762e-15 -1.965231601908749041e-15 0.000000000000000000e+00 0.000000000000000000e+00 0.000000000000000000e+00 0.000000000000000000e+00 -2.891222696512430929e-15 -2.700615552651886986e-14 0.000000000000000000e+00 2.939906450044980384e-15 -4.035765883418204171e-15 4.433489364820274511e-16 1.812425208224724762e-15 -1.965231601908749041e-15 0.000000000000000000e+00 3.304581879014431702e-15 5.798228742382871490e-16 0.000000000000000000e+00 -5.989542098683778000e-15 -1.477206904465531395e-14 0.000000000000000000e+00 1.240650398896463546e-15 -3.051494067129679373e-15 4.433489364820274511e-16 1.812425208224724762e-15 -1.965231601908749041e-15 0.000000000000000000e+00 0.000000000000000000e+00 0.000000000000000000e+00 0.000000000000000000e+00 -5.751113434758751996e-15 -4.120459010410180618e-14 0.000000000000000000e+00 -1.135197403469296529e-16 -6.370716867331431944e-16 4.433489364820274511e-16 1.812425208224724762e-15 -1.965231601908749041e-15 0.000000000000000000e+00 0.000000000000000000e+00 0.000000000000000000e+00 0.000000000000000000e+00 -1.063993249892769236e-14 -3.466648216723193088e-14 0.000000000000000000e+00 -1.645690325386135842e-15 9.523360684823460298e-17 -3.879345976877702218e-01 -4.799585308708564924e+00 3.926691119598884616e-01 -1.920677709701326563e+01 -1.801147378951018174e+00 8.953850623620546401e+00 -3.902077674934228924e+01 -2.014496721596276529e+01 -6.741055654810384112e+01 7.427227500089250256e+00 -4.723180155814493908e+00 -9.458169229972934744e+00 0.000000000000000000e+00 0.000000000000000000e+00 0.000000000000000000e+00 -3.102736513318692314e-15 -1.560686194587536600e-15 0.000000000000000000e+00 6.083222047519944276e-15 5.472130903782278483e-16 0.000000000000000000e+00 8.133408450915304112e-16 2.642297182455725257e-15 -9.762445346411109214e-16 0.000000000000000000e+00 0.000000000000000000e+00 0.000000000000000000e+00 0.000000000000000000e+00 -6.965203231235098879e-15 1.185249819231317007e-14 0.000000000000000000e+00 1.619070179879391614e-16 3.074408167274860410e-15 8.133408450915304112e-16 2.642297182455725257e-15 -9.762445346411109214e-16 0.000000000000000000e+00 -6.460624501422109165e-15 4.558880148952909037e-15 0.000000000000000000e+00 -9.921556784314545375e-16 9.282882107223354269e-15 0.000000000000000000e+00 1.229893240723149346e-15 6.058452770715479447e-15 8.133408450915304112e-16 2.642297182455725257e-15 -9.762445346411109214e-16 0.000000000000000000e+00 0.000000000000000000e+00 0.000000000000000000e+00 0.000000000000000000e+00 7.410886315653349473e-16 5.616565973479513605e-15 0.000000000000000000e+00 -1.885861896573027590e-15 2.100434882445944493e-15 8.133408450915304112e-16 2.642297182455725257e-15 -9.762445346411109214e-16 0.000000000000000000e+00 0.000000000000000000e+00 0.000000000000000000e+00 0.000000000000000000e+00 2.553811703480725551e-16 8.074163319913336954e-16 0.000000000000000000e+00 -8.689572399547335119e-16 2.557452784214282375e-15
7.500000000000000000e+02 0.000000000000000000e+00 0.000000000000000000e+00 0.000000000000000000e+00 0.000000000000000000e+00 0.000000000000000000e+00 -5.919656067574136094e-01 -1.000143040557858498e+01 -1.214457847473279983e+01 -4.323048121149162260e-01 1.444754169542210676e+01 9.620848254122503107e+00 -1.156252388739371195e+00 -8.959452211508134312e+00 3.033206582536123186e+00 2.528054881866695247e+00 -2.042004313667125981e+00 2.461040511641297002e+00 1.186502266203223410e+00 1.645166726058589290e+01 7.869297981287386889e+00 -8.276598350236612944e+00 -3.002910975710164632e+00 5.114758173962957954e+00 1.133393766541798353e+00 -5.327268270182430321e+00 6.280917859180770613e+00 -4.620085856332750041e+00 5.830884579418734726e-01 8.111402543519947272e+00 -8.362779728305373972e-01 -9.154335571272492755e-02 2.103446795858475937e+00 -1.555707104560598131e+00 -3.132860009094714515e-01 3.669445136300910626e+00 2.255399939959578104e-01 2.517561729084030753e-01 -5.142427204750419367e-01 1.244709880872228780e+00 -1.631463173378893683e-01 2.229709547629247224e-01 3.886288574427323006e+00 7.870682442848017324e+00 -7.615133174259915094e+00 -1.431141260277835503e+00 8.963365789862715038e-01 8.500343776964990994e+00 -3.118296091058494568e+01 -3.099172406238323685e+00 1.395648707510532383e+00 -1.046110040464673041e+01 2.394638132141022169e+01 -1.719093165906600618e+01 -1.590129834992693336e+00 1.217427077066592478e+00 -6.428795739644781904e+00 0.000000000000000000e+00 0.000000000000000000e+00 0.000000000000000000e+00 -4.676462530538812316e-15 -1.026432190808285418e-15 0.000000000000000000e+00 -3.059841451195627342e-15 -2.781437263452581285e-15 0.000000000000000000e+00 5.589353919448713904e-16 1.936019681298586840e-15 -2.021396574582996584e-15 0.000000000000000000e+00 0.000000000000000000e+00 0.000000000000000000e+00 0.000000000000000000e+00 -3.234653636020962666e-15 -2.789194764622881217e-14 0.000000000000000000e+00 2.966843028475044457e-15 -4.165023414458150534e-15 5.589353919448713904e-16 1.936019681298586840e-15 -2.021396574582996584e-15 0.000000000000000000e+00 3.475522734967452803e-15 1.022019422214710520e-15 0.000000000000000000e+00 -6.135388378324150190e-15 -1.547785573460892635e-14 0.000000000000000000e+00 1.022039769136778285e-15 -3.219873669084498252e-15 5.589353919448713904e-16 1.936019681298586840e-15 -2.021396574582996584e-15 0.000000000000000000e+00 0.000000000000000000e+00 0.000000000000000000e+00 0.000000000000000000e+00 -6.696364904542501416e-15 -4.588225152391042232e-14 0.000000000000000000e+00 -3.235134002703527733e-16 -6.266553460653260452e-16 5.589353919448713904e-16 1.936019681298586840e-15 -2.021396574582996584e-15 0.000000000000000000e+00 0.000000000000000000e+00 0.000000000000000000e+00 0.000000000000000000e+00 -1.111744569798610597e-14 -3.646377511625810963e-14 0.000000000000000000e+00 -1.821294323017064076e-15 -4.631734086130685065e-16 -6.625588609955866959e-01 -4.787362987141826842e+00 3.682507216360775271e-01 -1.927456647349660201e+01 -2.162533309252642866e+00 8.894914384033254962e+00 -3.818054246981630229e+01 -2.010716623859286756e+01 -6.844193720072190956e+01 7.696697017833068699e+00 -4.639834416375364867e+00 -9.725625843699587492e+00 0.000000000000000000e+00 0.000000000000000000e+00 0.000000000000000000e+00 -3.662437007206724940e-15 -1.362963269595512722e-15 0.000000000000000000e+00 6.122711638101166195e-15 6.716168798100150045e-16 0.000000000000000000e+00 8.236573534879736776e-16 2.562059967669841822e-15 -8.249266969827552235e-16 0.000000000000000000e+00 0.000000000000000000e+00 0.000000000000000000e+00 0.000000000000000000e+00 -6.902096093750642913e-15 1.181768600612209752e-14 0.000000000000000000e+00 1.334398129490274066e-16 2.897913001826863057e-15 8.236573534879736776e-16 2.562059967669841822e-15 -8.249266969827552235e-16 0.000000000000000000e+00 -6.502043384229594914e-15 4.903754092968562582e-15 0.000000000000000000e+00 -5.460553957528203977e-16 9.360711711494281128e-15 0.000000000000000000e+00 1.205693005498208778e-15 6.127837109776178392e-15 8.236573534879736776e-16 2.562059967669841822e-15 -8.249266969827552235e-16 0.000000000000000000e+00 0.000000000000000000e+00 0.000000000000000000e+00 0.000000000000000000e+00 8.904691123640244539e-16 5.712440864927345154e-15 0.000000000000000000e+00 -1.895653862171327851e-15 2.075453799756951499e-15 8.236573534879736776e-16 2.562059967669841822e-15 -8.249266969827552235e-16 0.000000000000000000e+00 0.000000000000000000e+00 0.000000000000000000e+00 0.000000000000000000e+00 3.833488377872559278e-16 7.909507940677453027e-16 0.000000000000000000e+00 -5.844443745673103734e-16 2.493331295169275344e-15
